# xmcd
#
# Track frame offsets:
# 150
# 19541
# 42094
# 62627
# 81032
# 99049
# 122912
# 144086
# 163104
# 183921
# 204150
# 222992
# 242453
# 263952
# 285570
# 306073
# 330064
#
# Disc length: 4666 seconds
#
#
# Revision: 0
# Processed by: cddbd v1.4PL0 Copyright (c) Steve Scherf et al.
# Submitted via: FreeRIP 2.30 
#
DISCID=d3123811
DTITLE=Lisa Stansfield - The greatest hits
DYEAR=1900
DGENRE=Blues
TTITLE0=Change
TTITLE1=Someday (I'm coming back)
TTITLE2=This is the right time
TTITLE3=The real thing
TTITLE4=People hold On
TTITLE5=In all the right places
TTITLE6=So natural
TTITLE7=Time to make you mine
TTITLE8=Live together
TTITLE9=Little bit of heaven
TTITLE10=Set your loving free
TTITLE11=Let's just call in love
TTITLE12=Never, never gonna give you up
TTITLE13=There are the days of our lives
TTITLE14=Down in the depths
TTITLE15=All woman
TTITLE16=All around the world
EXTD=This is from italy
EXTT0=
EXTT1=
EXTT2=
EXTT3=
EXTT4=
EXTT5=
EXTT6=
EXTT7=
EXTT8=
EXTT9=
EXTT10=
EXTT11=
EXTT12=
EXTT13=
EXTT14=
EXTT15=
EXTT16=
PLAYORDER=
